<svg width="512" height="512" xmlns="http://www.w3.org/2000/svg" clip-rule="evenodd" fill-rule="evenodd" image-rendering="optimizeQuality" text-rendering="geometricPrecision" shape-rendering="geometricPrecision">

 <g>
  <title>Layer 1</title>
  <path stroke="null" id="svg_5" d="m494.12099,439.51112l-127.40328,-130.07074c17.16351,-28.89447 27.22919,-62.69899 27.24707,-98.94941c-0.01788,-105.73952 -83.88664,-191.3825 -187.40404,-191.41901c-103.53528,0.03651 -187.4398,85.67949 -187.4398,191.40076c0,105.66651 83.90452,191.30949 187.4398,191.30949c35.52488,0 68.63615,-10.27643 96.93806,-27.79929l127.43904,130.08899l63.18316,-64.56079zm-403.50332,-229.0384c0.10727,-65.38218 51.90173,-118.24281 115.92519,-118.38883c63.9877,0.14602 115.81792,53.00666 115.92519,118.38883c-0.12515,65.34567 -51.93749,118.2063 -115.92519,118.35233c-64.02346,-0.14602 -115.81792,-53.00666 -115.92519,-118.35233z" fill="#58518e"/>
 </g>
</svg>