<svg width="800" height="600" xmlns="http://www.w3.org/2000/svg">

 <g>
  <title>Layer 1</title>
  <g stroke="null">
   <g stroke="null" data-name="Layer 2">
    <g stroke="null" data-name="plus-circle">
     <rect stroke="#58518e" x="-14" y="-49" opacity="0" height="705" width="797.00003"/>
     <path fill="#58518e" d="m384.50002,9.75a332.08335,293.75 0 1 0 332.08335,293.75a332.08335,293.75 0 0 0 -332.08335,-293.75zm0,528.75a265.66668,235 0 1 1 265.66668,-235a265.66668,235 0 0 1 -265.66668,235z"/>
     <path fill="#58518e" d="m484.12502,274.125l-66.41667,0l0,-58.75a33.20833,29.375 0 0 0 -66.41667,0l0,58.75l-66.41667,0a33.20833,29.375 0 0 0 0,58.75l66.41667,0l0,58.75a33.20833,29.375 0 0 0 66.41667,0l0,-58.75l66.41667,0a33.20833,29.375 0 0 0 0,-58.75z"/>
    </g>
   </g>
  </g>
 </g>
</svg>